<?xml version="1.0" standalone="no"?>
<!DOCTYPE svg PUBLIC "-//W3C//DTD SVG 20010904//EN"
 "http://www.w3.org/TR/2001/REC-SVG-20010904/DTD/svg10.dtd">
<svg version="1.0" xmlns="http://www.w3.org/2000/svg"
 width="1588.000000pt" height="1588.000000pt" viewBox="0 0 1588.000000 1588.000000"
 preserveAspectRatio="xMidYMid meet">
<metadata>
Created by potrace 1.11, written by Peter Selinger 2001-2013
</metadata>
<g transform="translate(0.000000,1588.000000) scale(0.100000,-0.100000)"
fill="#000000" stroke="none">
<path d="M3215 12178 c-3 -7 -32 -85 -66 -173 -34 -88 -67 -175 -74 -192 -6
-18 -14 -36 -18 -39 -4 -4 -7 -14 -7 -23 0 -9 -7 -29 -15 -45 -8 -15 -15 -33
-15 -40 -1 -6 -9 -29 -20 -51 -11 -22 -19 -43 -20 -47 0 -4 -5 -19 -12 -35 -6
-15 -12 -32 -14 -38 -1 -5 -8 -23 -15 -40 -7 -16 -13 -32 -13 -35 -2 -6 -44
-118 -101 -265 -85 -219 -127 -330 -128 -340 -1 -5 -4 -12 -7 -15 -3 -3 -11
-21 -17 -40 -6 -19 -23 -66 -38 -105 -32 -88 -32 -88 -33 -99 0 -5 -4 -12 -9
-15 -7 -5 -52 -120 -57 -146 -1 -5 -5 -15 -8 -20 -4 -6 -23 -56 -44 -110 -20
-55 -41 -111 -47 -125 -6 -14 -11 -30 -12 -35 -2 -6 -13 -35 -25 -65 -29 -72
-46 -117 -89 -230 -33 -89 -42 -115 -43 -120 0 -3 -9 -22 -19 -42 -11 -21 -17
-38 -13 -38 4 0 2 -6 -3 -12 -5 -7 -17 -35 -27 -63 -10 -27 -22 -59 -26 -70
-5 -11 -52 -135 -105 -275 -53 -140 -101 -266 -107 -280 -6 -14 -12 -30 -13
-35 -2 -6 -12 -33 -23 -60 -35 -86 -113 -294 -114 -302 0 -4 -6 -19 -13 -33
-8 -14 -37 -88 -66 -165 -82 -222 -94 -254 -133 -352 -20 -51 -36 -95 -36 -99
0 -3 -6 -20 -14 -37 -8 -18 -40 -99 -71 -182 -31 -82 -60 -159 -65 -170 -4
-11 -14 -36 -20 -55 -7 -19 -19 -48 -25 -65 -24 -57 -60 -150 -61 -157 -1 -5
-3 -10 -4 -13 -1 -3 -3 -8 -5 -12 -1 -5 -5 -17 -10 -28 -37 -90 -65 -168 -65
-180 0 -8 -4 -15 -8 -15 -4 0 -13 -17 -19 -37 -13 -45 -108 -294 -128 -340 -8
-17 -15 -38 -15 -46 0 -9 -5 -19 -10 -22 -6 -3 -10 -13 -10 -22 0 -8 -6 -29
-14 -46 -15 -33 -87 -219 -152 -392 -20 -55 -41 -111 -47 -125 -6 -14 -11 -27
-12 -30 -1 -3 -6 -16 -12 -30 -5 -14 -20 -54 -33 -90 -13 -36 -26 -69 -30 -75
-8 -11 -19 -54 -19 -69 1 -5 -3 -12 -8 -15 -5 -3 -23 -46 -42 -96 -18 -49 -44
-119 -58 -153 -13 -35 -22 -66 -19 -69 3 -3 222 -5 487 -5 451 1 482 2 495 19
7 10 14 23 14 30 0 6 5 24 12 40 6 15 12 35 14 44 2 8 12 35 23 59 11 24 17
48 15 52 -3 4 0 8 7 8 7 0 10 3 7 6 -3 3 5 35 19 72 13 37 26 74 28 82 2 8 16
47 30 85 28 78 34 92 37 103 1 4 12 36 25 72 14 36 71 198 129 360 57 162 107
302 111 310 3 8 7 17 8 20 8 35 50 148 58 158 5 6 7 12 4 12 -3 0 6 28 20 63
13 34 26 67 27 72 16 65 32 96 50 100 12 3 90 4 174 2 83 -1 152 2 152 6 0 5
5 5 11 1 16 -9 109 -11 109 -1 0 5 5 5 10 2 16 -10 350 -11 350 -2 0 5 5 5 11
1 16 -9 109 -11 109 -1 0 5 5 5 10 2 16 -10 350 -11 350 -2 0 5 5 5 11 1 16
-9 109 -11 109 -1 0 5 5 5 10 2 16 -10 430 -11 430 -2 0 5 5 5 11 1 16 -9 309
-11 309 -1 0 5 5 5 11 1 16 -9 309 -11 309 -1 0 5 5 5 11 1 16 -9 309 -11 309
-1 0 5 5 5 11 2 13 -9 229 -12 229 -4 0 14 49 -4 53 -19 3 -10 18 -48 32 -87
28 -73 44 -123 46 -140 0 -5 4 -14 9 -20 6 -8 48 -126 55 -155 1 -3 7 -18 13
-33 7 -16 12 -34 12 -41 0 -7 3 -16 8 -20 4 -4 7 -11 8 -14 1 -17 17 -78 22
-87 4 -5 8 -18 9 -27 2 -10 12 -39 24 -65 21 -47 34 -79 50 -118 8 -20 33 -92
109 -310 23 -66 46 -129 50 -140 10 -24 61 -166 64 -180 2 -5 6 -17 9 -25 42
-112 66 -181 71 -207 4 -18 12 -35 17 -38 5 -4 9 -15 9 -26 0 -16 7 -19 53
-19 71 -1 809 -1 874 -1 l51 1 -34 86 c-19 48 -33 88 -30 91 2 3 60 6 128 8
123 3 139 5 233 27 28 7 52 12 55 13 40 7 243 101 248 116 2 5 8 9 13 9 9 0
133 84 155 104 6 6 33 29 60 51 42 34 210 200 278 275 26 28 148 179 186 229
14 18 34 45 46 59 12 15 43 59 69 97 27 39 52 72 57 73 4 2 8 7 8 11 0 7 261
401 295 446 166 218 245 300 341 351 63 35 76 38 149 38 176 -1 331 -115 381
-282 17 -57 26 -250 12 -258 -4 -2 -6 -12 -6 -22 0 -9 -2 -28 -5 -42 -23 -96
-55 -198 -73 -233 -8 -16 -14 -33 -14 -38 0 -21 -211 -437 -228 -449 -5 -3
-14 -19 -20 -35 -15 -36 -48 -70 -472 -485 -183 -179 -397 -389 -476 -466 -79
-78 -158 -154 -175 -168 -17 -14 -28 -26 -25 -26 3 0 -13 -18 -37 -39 -23 -22
-133 -129 -244 -238 -564 -554 -823 -807 -835 -814 -7 -4 -10 -11 -6 -14 3 -4
129 -8 280 -10 150 -2 350 -4 445 -6 l171 -2 164 161 c132 130 337 331 619
607 24 23 29 25 55 13 16 -7 32 -16 35 -21 3 -5 8 -8 10 -7 7 4 404 -194 411
-205 5 -7 8 -7 8 0 0 6 4 4 9 -3 8 -14 97 77 214 222 18 21 37 43 42 50 6 6
30 36 55 66 25 30 47 57 50 60 3 3 17 21 32 42 15 20 33 42 40 50 7 7 24 29
38 48 25 37 26 37 63 85 13 17 46 62 72 100 27 39 52 72 57 73 4 2 8 8 8 14 0
8 44 73 60 88 3 3 37 55 75 115 38 61 73 112 77 113 4 2 8 7 8 11 0 4 31 59
69 122 37 63 95 164 127 224 32 61 61 112 66 113 4 2 8 9 8 15 0 7 9 29 20 50
11 20 17 37 13 37 -5 0 -3 4 3 8 6 4 24 34 39 67 51 111 68 150 70 155 0 3 8
21 17 40 19 43 30 71 34 88 5 28 13 22 29 -28 9 -28 18 -56 19 -63 2 -7 6 -19
9 -27 3 -8 19 -62 36 -120 18 -58 37 -123 44 -145 6 -22 12 -42 13 -45 0 -3 3
-12 6 -20 7 -17 41 -130 44 -145 1 -5 14 -48 29 -95 27 -87 53 -173 60 -200 2
-8 4 -16 5 -17 2 -2 4 -7 5 -13 1 -5 4 -12 5 -15 1 -3 3 -8 4 -12 1 -5 10 -35
20 -68 10 -33 20 -68 21 -77 2 -9 8 -25 13 -35 6 -10 10 -22 11 -28 1 -5 9
-35 18 -65 9 -30 18 -59 19 -65 1 -5 12 -41 24 -80 26 -85 50 -167 53 -180 2
-5 5 -14 8 -20 5 -9 15 -42 25 -80 1 -5 16 -57 34 -115 18 -58 38 -125 45
-150 7 -25 23 -76 36 -115 12 -38 23 -74 24 -80 0 -5 9 -37 20 -70 10 -33 20
-63 21 -67 1 -5 3 -10 4 -13 1 -3 3 -8 4 -12 5 -21 38 -130 43 -143 3 -8 8
-24 10 -35 2 -11 6 -27 10 -35 3 -8 7 -17 7 -20 9 -41 31 -107 37 -115 5 -5 9
-16 9 -25 0 -14 24 -17 198 -19 157 -2 519 -9 567 -11 6 0 24 1 40 3 17 1 36
-2 43 -7 8 -5 12 -4 12 3 0 8 8 10 20 6 24 -8 24 -8 5 44 -8 22 -12 41 -8 41
3 0 -1 7 -8 17 -8 9 -13 19 -12 22 1 3 -7 38 -19 76 -11 39 -21 75 -23 80 -1
6 -5 17 -8 25 -4 8 -8 24 -10 35 -2 11 -9 33 -15 48 -7 16 -12 32 -12 36 0 4
-9 39 -21 77 -12 38 -37 121 -56 184 -66 221 -74 245 -80 260 -3 8 -6 18 -5
22 1 4 -3 20 -9 35 -6 15 -15 42 -19 58 -5 17 -20 68 -35 115 -14 47 -28 92
-30 100 -2 8 -27 92 -55 185 -29 94 -54 179 -56 190 -2 11 -8 29 -13 40 -5 11
-13 34 -17 50 -7 28 -9 38 -17 68 -2 6 -7 19 -10 27 -7 17 -77 248 -82 270 -3
16 -43 144 -53 170 -3 8 -6 22 -8 30 -4 19 -34 120 -41 140 -8 18 -7 15 -22
70 -7 25 -15 53 -16 62 -2 9 -9 26 -15 37 -6 12 -9 21 -6 21 3 0 -2 16 -10 35
-8 19 -14 36 -13 37 1 2 -7 30 -17 63 -10 33 -18 62 -19 65 0 3 -11 39 -24 80
-13 41 -24 80 -26 85 -1 6 -5 17 -8 25 -4 8 -8 24 -10 35 -2 11 -7 27 -10 35
-3 8 -13 40 -22 70 -9 30 -21 67 -25 83 -8 25 0 36 148 181 256 251 876 859
1281 1255 91 89 168 161 173 161 4 0 8 4 8 9 0 5 37 44 81 87 99 96 234 228
671 656 183 179 407 399 498 487 91 89 160 161 155 162 -22 2 -414 9 -644 12
l-243 4 -152 -148 c-83 -81 -227 -222 -321 -314 -93 -91 -291 -284 -439 -428
-147 -144 -319 -311 -381 -372 -62 -60 -246 -240 -410 -400 -163 -159 -345
-337 -404 -395 -59 -58 -139 -136 -178 -173 l-72 -69 -26 84 c-15 45 -28 90
-30 98 -2 8 -12 42 -23 76 -12 33 -23 71 -26 85 -2 13 -11 41 -20 61 -9 21
-16 40 -16 43 -1 7 -6 26 -19 67 -7 20 -14 45 -16 55 -2 10 -21 70 -41 133
-19 63 -37 120 -38 125 -2 6 -6 17 -9 25 -3 8 -20 62 -37 120 -17 58 -34 112
-37 120 -3 8 -7 21 -9 29 -2 12 -12 42 -79 251 -15 47 -28 92 -30 100 -2 8
-13 44 -25 80 -12 36 -24 76 -26 89 -3 14 -8 29 -12 35 -3 6 -7 16 -8 23 -2
10 -45 151 -92 298 -3 11 -6 22 -7 25 0 3 -4 11 -8 18 -5 6 -6 12 -2 12 3 0 1
9 -5 21 -7 11 -13 30 -16 42 -2 12 -19 69 -37 127 l-33 104 -176 2 c-96 0
-180 4 -187 8 -6 4 -11 3 -11 -3 0 -7 -8 -7 -22 -2 -13 4 -35 5 -50 0 -15 -4
-30 -4 -32 -1 -2 4 -28 6 -58 4 -29 -1 -57 -2 -63 -2 -5 0 -76 2 -157 3 -145
4 -146 4 -137 -17 4 -12 22 -68 39 -126 17 -58 34 -112 37 -120 8 -18 7 -15
22 -70 7 -25 13 -46 12 -47 0 -2 6 -18 15 -38 8 -19 15 -38 15 -42 1 -5 3 -12
5 -18 9 -28 77 -255 86 -285 5 -19 15 -53 23 -75 7 -22 28 -87 45 -145 18 -58
35 -112 38 -120 3 -8 6 -19 8 -25 1 -5 12 -39 23 -75 11 -36 21 -68 21 -71 0
-4 -44 8 -97 27 -54 19 -107 36 -118 39 -11 2 -42 9 -70 15 -27 5 -59 12 -70
15 -23 4 -154 17 -172 16 -14 -1 -35 -1 -55 -1 -24 1 -133 -9 -158 -14 -74
-15 -126 -30 -136 -38 -7 -5 -16 -8 -20 -7 -8 2 -26 -4 -84 -29 -41 -18 -169
-94 -180 -107 -7 -8 -16 -15 -21 -15 -5 0 -18 -8 -30 -17 -122 -103 -155 -132
-227 -204 -110 -108 -214 -225 -302 -339 -19 -25 -38 -47 -41 -50 -5 -4 -178
-238 -225 -305 -77 -110 -114 -166 -114 -174 0 -5 -7 -11 -15 -15 -8 -3 -15
-12 -15 -20 0 -8 -3 -16 -8 -18 -4 -1 -50 -66 -102 -143 -52 -77 -98 -144
-102 -150 -5 -5 -31 -39 -59 -75 -65 -83 -131 -153 -177 -187 -20 -16 -40 -32
-43 -37 -16 -22 -141 -53 -200 -51 -100 5 -212 71 -278 164 -10 14 -19 28 -19
31 0 3 -5 18 -11 33 -11 29 -26 125 -24 162 3 115 39 260 105 420 30 72 109
238 121 254 6 7 12 19 13 27 1 7 10 26 21 41 30 47 43 67 50 83 4 8 32 53 62
100 31 47 59 93 63 103 4 9 12 17 18 17 5 0 10 4 10 10 0 13 62 100 72 100 4
0 8 5 8 11 0 9 89 130 110 149 3 3 29 34 59 70 79 97 193 220 317 344 119 120
287 276 310 289 30 17 8 35 -129 101 -78 38 -144 70 -147 71 -3 0 -14 6 -25
13 -39 24 -464 232 -473 232 -6 0 -12 3 -14 8 -1 4 -51 31 -109 60 -95 47
-139 57 -139 33 0 -4 -8 -16 -17 -27 -10 -10 -38 -44 -63 -74 -25 -30 -50 -59
-56 -65 -6 -5 -26 -30 -45 -55 -18 -25 -36 -47 -39 -50 -9 -8 -161 -206 -233
-305 -37 -49 -70 -95 -75 -101 -5 -5 -64 -93 -130 -195 -67 -101 -126 -189
-132 -196 -5 -7 -10 -14 -10 -17 0 -3 -27 -50 -60 -104 -33 -55 -60 -103 -60
-107 0 -4 -8 -19 -19 -33 -10 -15 -49 -87 -86 -159 -63 -124 -85 -155 -85
-118 0 8 -4 23 -9 33 -10 20 -43 104 -97 247 -20 55 -42 114 -49 130 -7 17
-18 44 -23 60 -6 17 -54 143 -107 280 -53 138 -98 257 -100 265 -3 14 -23 65
-44 115 -5 11 -19 47 -31 80 -12 33 -26 69 -30 80 -5 11 -23 58 -40 105 -17
47 -35 94 -40 105 -5 11 -23 58 -40 105 -17 47 -35 94 -40 105 -5 11 -27 70
-50 130 -22 61 -48 128 -57 150 -8 22 -22 58 -30 80 -9 22 -19 49 -24 60 -5
11 -18 47 -30 80 -11 33 -29 79 -40 102 -10 24 -19 49 -19 56 0 8 -3 17 -7 21
-4 3 -8 12 -9 19 -1 7 -10 30 -20 52 -10 22 -18 45 -20 50 -1 6 -21 59 -44
118 -23 59 -43 113 -44 120 -3 11 -23 61 -46 112 -5 11 -32 83 -60 160 -28 77
-55 149 -60 160 -5 11 -41 106 -80 210 -39 105 -75 199 -80 210 -5 11 -23 58
-40 105 -17 47 -35 94 -40 105 -5 11 -25 64 -45 118 l-37 97 -529 0 c-415 0
-531 -3 -534 -12z m561 -988 c10 -30 22 -59 26 -64 4 -6 8 -19 8 -31 0 -12 4
-25 9 -30 10 -11 77 -194 79 -218 1 -4 8 -20 16 -35 9 -15 24 -54 35 -87 19
-58 65 -184 78 -215 3 -8 7 -17 8 -20 1 -3 5 -14 9 -25 4 -11 12 -33 18 -50 5
-16 14 -39 18 -50 14 -32 132 -349 135 -360 1 -5 7 -23 14 -40 13 -32 40 -103
45 -120 2 -5 6 -17 9 -25 3 -8 22 -60 42 -115 20 -55 42 -116 50 -135 23 -61
72 -192 100 -270 15 -41 32 -86 38 -100 6 -14 12 -29 13 -35 5 -19 27 -80 40
-110 7 -16 63 -167 125 -335 104 -285 284 -771 314 -850 l13 -35 -1267 0
c-1366 1 -1275 -3 -1252 50 8 17 50 131 171 465 15 41 34 92 43 113 9 20 13
37 10 37 -3 0 1 7 8 17 8 9 13 17 11 17 -2 1 1 12 6 26 5 14 44 120 86 235 42
116 80 219 85 230 9 20 55 145 57 155 0 3 6 19 13 35 6 17 15 41 20 55 5 14
12 34 17 45 4 11 8 25 9 31 2 6 9 27 18 45 22 52 67 173 67 183 0 4 6 22 14
39 26 59 116 308 116 322 0 7 3 15 8 17 4 2 17 33 29 70 13 36 28 79 34 95 7
15 13 33 15 38 4 15 70 195 85 230 15 36 14 32 24 70 4 17 11 35 15 40 4 6 19
46 34 90 16 44 34 94 41 110 7 17 22 59 35 95 12 35 24 69 28 75 4 5 7 15 8
20 2 11 95 264 122 332 9 23 20 39 23 35 3 -4 14 -32 25 -62z"/>
</g>
</svg>
